<svg width="1920" height="1080" viewBox="0 0 1920 1080" fill="none" xmlns="http://www.w3.org/2000/svg">
<g clip-path="url(#clip0_14_2)">
<rect width="1920" height="1080" fill="#FFCC90"/>
<path d="M1920 889V825.549C1873.32 821.232 1821.88 842.382 1821.88 889H1920Z" fill="#FFCC90"/>
<path d="M0 254.451V825.549C46.6806 821.232 98.125 842.382 98.125 889C98.125 803.667 270.5 803.667 270.5 889C270.5 803.667 442.875 803.667 442.875 889C442.875 803.667 615.25 803.667 615.25 889C615.25 803.667 787.625 803.667 787.625 889C787.625 803.667 960 803.667 960 889C960 803.667 1132.37 803.667 1132.37 889C1132.37 803.667 1304.75 803.667 1304.75 889C1304.75 803.667 1477.12 803.667 1477.12 889C1477.12 803.667 1649.5 803.667 1649.5 889C1649.5 803.667 1821.88 803.667 1821.88 889C1821.88 842.382 1873.32 821.232 1920 825.549V254.451C1873.32 258.768 1821.88 237.618 1821.88 191C1821.88 276.333 1649.5 276.333 1649.5 191C1649.5 276.333 1477.12 276.333 1477.12 191C1477.12 276.333 1304.75 276.333 1304.75 191C1304.75 276.333 1132.37 276.333 1132.37 191C1132.37 276.333 960 276.333 960 191C960 276.333 787.625 276.333 787.625 191C787.625 276.333 615.25 276.333 615.25 191C615.25 276.333 442.875 276.333 442.875 191C442.875 276.333 270.5 276.333 270.5 191C270.5 276.333 98.125 276.333 98.125 191C98.125 237.618 46.6806 258.768 0 254.451Z" fill="#FBE4AB"/>
<path d="M108 96H1812.5" stroke="#EC1717" stroke-width="5" stroke-dasharray="6 10"/>
<path d="M108 992H1812.5" stroke="#EC1717" stroke-width="5" stroke-dasharray="6 10"/>
</g>
<defs>
<clipPath id="clip0_14_2">
<rect width="1920" height="1080" fill="white"/>
</clipPath>
</defs>
</svg>
